<!-- <svg xmlns="http://www.w3.org/2000/svg" fill="none" class="icon icon-cart-empty" viewBox="0 0 40 40"><path fill="currentColor" fill-rule="evenodd" d="M15.75 11.8h-3.16l-.77 11.6a5 5 0 0 0 4.99 5.34h7.38a5 5 0 0 0 4.99-5.33L28.4 11.8zm0 1h-2.22l-.71 10.67a4 4 0 0 0 3.99 4.27h7.38a4 4 0 0 0 4-4.27l-.72-10.67h-2.22v.63a4.75 4.75 0 1 1-9.5 0zm8.5 0h-7.5v.63a3.75 3.75 0 1 0 7.5 0z"/></svg> -->

   <svg width="34" height="34" viewBox="0 0 34 34" fill="none" xmlns="http://www.w3.org/2000/svg">
              <path d="M30.9132 10.5273C30.7829 10.339 30.6089 10.185 30.4061 10.0787C30.2033 9.97235 29.9777 9.91676 29.7487 9.91668H10.3871L8.75228 5.99252C8.53856 5.4753 8.17573 5.0334 7.71001 4.72309C7.24429 4.41277 6.69675 4.24809 6.13712 4.25002H2.83203V7.08335H6.13712L12.8578 23.2121C12.9654 23.4702 13.147 23.6906 13.3797 23.8456C13.6124 24.0007 13.8858 24.0834 14.1654 24.0834H25.4987C26.0894 24.0834 26.6179 23.7164 26.8261 23.1653L31.0761 11.832C31.1564 11.6176 31.1836 11.3868 31.1552 11.1596C31.1268 10.9324 31.0438 10.7154 30.9132 10.5273ZM24.5169 21.25H15.1103L11.5686 12.75H27.7044L24.5169 21.25Z" fill="black"/>
              <path d="M14.875 29.75C16.0486 29.75 17 28.7986 17 27.625C17 26.4514 16.0486 25.5 14.875 25.5C13.7014 25.5 12.75 26.4514 12.75 27.625C12.75 28.7986 13.7014 29.75 14.875 29.75Z" fill="black"/>
              <path d="M24.793 29.75C25.9666 29.75 26.918 28.7986 26.918 27.625C26.918 26.4514 25.9666 25.5 24.793 25.5C23.6194 25.5 22.668 26.4514 22.668 27.625C22.668 28.7986 23.6194 29.75 24.793 29.75Z" fill="black"/>
            </svg>