<!-- <svg class="icon icon-facebook" viewBox="0 0 20 20"><path fill="currentColor" d="M18 10.049C18 5.603 14.419 2 10 2s-8 3.603-8 8.049C2 14.067 4.925 17.396 8.75 18v-5.624H6.719v-2.328h2.03V8.275c0-2.017 1.195-3.132 3.023-3.132.874 0 1.79.158 1.79.158v1.98h-1.009c-.994 0-1.303.621-1.303 1.258v1.51h2.219l-.355 2.326H11.25V18c3.825-.604 6.75-3.933 6.75-7.951"/></svg> -->
<svg class="icon icon-facebook" width="30" height="30" viewBox="0 0 30 30" fill="none" xmlns="http://www.w3.org/2000/svg">
<path d="M26.6667 0H3.33333C1.5 0 0 1.5 0 3.33333V26.6667C0 28.5017 1.5 30 3.33333 30H15V18.3333H11.6667V14.2083H15V10.7917C15 7.185 17.02 4.65167 21.2767 4.65167L24.2817 4.655V8.99667H22.2867C20.63 8.99667 20 10.24 20 11.3933V14.21H24.28L23.3333 18.3333H20V30H26.6667C28.5 30 30 28.5017 30 26.6667V3.33333C30 1.5 28.5 0 26.6667 0Z" fill="#D4C2FF"/>
</svg>
